<?xml version="1.0" encoding="UTF-8"?>
<svg xmlns="http://www.w3.org/2000/svg" height="84" viewBox="0 0 170.1 84" width="170.1">
  <g fill="#273580">
    <path d="m101.7 30.5v23.1h-2.3v-18.5l-9.1 15.5h-1.2l-9.1-15.4v18.4h-2.3v-23.1h2l10 17.1 9.9-17.1z"></path>
    <path d="m123.1 45.6h-14.5c.1 1.8.8 3.3 2.1 4.4s2.8 1.7 4.7 1.7c1.1 0 2.1-.2 3-.6s1.7-.9 2.3-1.7l1.3 1.5c-.8.9-1.7 1.6-2.9 2.1s-2.4.7-3.8.7c-1.8 0-3.4-.4-4.7-1.1-1.4-.8-2.4-1.8-3.2-3.1s-1.2-2.9-1.2-4.5c0-1.7.4-3.2 1.1-4.5s1.7-2.4 3-3.1 2.7-1.1 4.3-1.1 3 .4 4.3 1.1 2.3 1.8 3 3.1 1.1 2.9 1.1 4.6zm-12.6-5.9c-1.1 1.1-1.8 2.5-1.9 4.2h12.3c-.2-1.7-.8-3.1-1.9-4.2s-2.5-1.6-4.2-1.6c-1.8 0-3.2.5-4.3 1.6z"></path>
    <path d="m143 29.1v24.5h-2.2v-3.4c-.7 1.2-1.6 2.1-2.8 2.7s-2.5.9-3.9.9c-1.6 0-3.1-.4-4.4-1.1s-2.4-1.8-3.1-3.1-1.1-2.9-1.1-4.6.4-3.2 1.1-4.6c.7-1.3 1.8-2.4 3.1-3.1s2.8-1.1 4.4-1.1c1.4 0 2.7.3 3.8.9s2.1 1.4 2.8 2.6v-10.6zm-5.4 21.7c1-.6 1.7-1.4 2.3-2.4s.8-2.2.8-3.5-.3-2.5-.8-3.5c-.6-1-1.3-1.8-2.3-2.4s-2.1-.8-3.3-.8-2.3.3-3.3.8c-1 .6-1.7 1.4-2.3 2.4s-.8 2.2-.8 3.5.3 2.5.8 3.5c.6 1 1.3 1.8 2.3 2.4s2.1.8 3.3.8 2.3-.3 3.3-.8z"></path>
    <path d="m148.8 31.9c-.3-.3-.5-.7-.5-1.2 0-.4.2-.8.5-1.2.3-.3.7-.5 1.2-.5s.9.2 1.2.5.5.7.5 1.1c0 .5-.2.9-.5 1.2s-.7.5-1.2.5c-.5.1-.9-.1-1.2-.4zm0 4.3h2.3v17.3h-2.3z"></path>
    <path d="m168.3 37.8c1.2 1.1 1.8 2.8 1.8 5v10.7h-2.2v-2.7c-.5.9-1.3 1.6-2.3 2.1s-2.2.8-3.6.8c-1.9 0-3.5-.5-4.6-1.4s-1.7-2.1-1.7-3.7c0-1.5.5-2.7 1.6-3.6s2.8-1.4 5.1-1.4h5.5v-1.1c0-1.5-.4-2.6-1.3-3.4-.8-.8-2.1-1.2-3.7-1.2-1.1 0-2.2.2-3.2.5-1 .4-1.9.9-2.6 1.5l-1.1-1.7c.9-.7 1.9-1.3 3.2-1.7 1.2-.4 2.5-.6 3.9-.6 2.3.2 4 .7 5.2 1.9zm-2.6 13.1c.9-.6 1.6-1.5 2.1-2.6v-2.8h-5.4c-3 0-4.4 1-4.4 3.1 0 1 .4 1.8 1.2 2.4s1.8.9 3.2.9c1.2 0 2.3-.3 3.3-1z"></path>
    <path d="m30.8 0c-18.2 0-30.8 4.2-30.8 4.2v22.6h3.9v-19.5c8.8-2.2 17.6-3.3 26.9-3.3s18.2 1.1 26.9 3.3v19.5h3.9v-22.6s-12.6-4.2-30.8-4.2z"></path>
    <path d="m30.8 84c-18.2 0-30.8-4.2-30.8-4.2v-22.6h3.9v19.5c8.8 2.2 17.6 3.3 26.9 3.3s18.2-1.1 26.9-3.3v-19.5h3.9v22.6s-12.6 4.2-30.8 4.2z"></path>
    <path d="m16.2 30.5v3.7h-12.3v6.1h11.1v3.5h-11.1v6.2h12.7v3.7h-16.6v-23.2z"></path>
    <path d="m42.4 53.5v-23h3.9v9.7h11.5v-9.7h3.9v23.1h-3.9v-9.8h-11.5v9.8z"></path>
    <path d="m35.8 42.6c-1.2-1-3-1.8-5.3-2.4-2.4-.6-3.9-1.1-4.6-1.6s-1.1-1.2-1.1-2.1.4-1.6 1.1-2.1 1.7-.7 2.8-.7 2.3.2 3.4.6c1.2.4 2.1.9 2.8 1.5l2.1-2.9c-1.1-.9-2.3-1.6-3.8-2-1.5-.5-2.9-.7-4.4-.7-2.3 0-4.2.6-5.8 1.7-1.6 1.2-2.3 2.8-2.3 4.9s.7 3.7 2 4.8c.7.5 1.5 1 2.3 1.3.9.3 2.2.7 3.9 1.1s2.9.9 3.6 1.4 1 1.2 1 2.1-.4 1.6-1.1 2.1-1.7.8-3 .8c-2.5 0-4.9-1-7.3-3l-2.4 2.9c2.8 2.5 6 3.7 9.6 3.7 2.5 0 4.5-.6 6-1.9s2.3-2.9 2.3-4.9-.6-3.6-1.8-4.6z"></path>
  </g>
</svg>
